<mxfile host="app.diagrams.net" modified="2023-11-16T18:10:40.028Z" agent="Mozilla/5.0 (Windows NT 10.0; Win64; x64) AppleWebKit/537.36 (KHTML, like Gecko) Chrome/119.0.0.0 Safari/537.36" etag="gQAFd-SvOaFBfQM_CsuQ" version="22.1.2" type="device">
  <diagram name="Seite-1" id="cxQT5OqkQS1NuZ_NjJlK">
    <mxGraphModel dx="1728" dy="915" grid="1" gridSize="10" guides="1" tooltips="1" connect="1" arrows="1" fold="1" page="1" pageScale="1" pageWidth="827" pageHeight="1169" math="0" shadow="0">
      <root>
        <mxCell id="0" />
        <mxCell id="1" parent="0" />
        <mxCell id="LWds2frH-b3ze7NJfMs8-12" style="edgeStyle=orthogonalEdgeStyle;rounded=0;orthogonalLoop=1;jettySize=auto;html=1;entryX=0.25;entryY=1;entryDx=0;entryDy=0;exitX=0.25;exitY=0;exitDx=0;exitDy=0;endSize=6;jumpSize=1;jumpStyle=line;" edge="1" parent="1" source="LWds2frH-b3ze7NJfMs8-3" target="LWds2frH-b3ze7NJfMs8-5">
          <mxGeometry relative="1" as="geometry" />
        </mxCell>
        <mxCell id="LWds2frH-b3ze7NJfMs8-13" value="authentication failed" style="edgeLabel;html=1;align=center;verticalAlign=middle;resizable=0;points=[];" vertex="1" connectable="0" parent="LWds2frH-b3ze7NJfMs8-12">
          <mxGeometry x="0.168" relative="1" as="geometry">
            <mxPoint x="-114" y="30" as="offset" />
          </mxGeometry>
        </mxCell>
        <mxCell id="LWds2frH-b3ze7NJfMs8-3" value="" style="swimlane;startSize=0;" vertex="1" parent="1">
          <mxGeometry x="160" y="280" width="1000" height="680" as="geometry" />
        </mxCell>
        <mxCell id="LWds2frH-b3ze7NJfMs8-4" value="&lt;font style=&quot;font-size: 10px;&quot;&gt;/&lt;/font&gt;" style="rounded=0;whiteSpace=wrap;html=1;" vertex="1" parent="LWds2frH-b3ze7NJfMs8-3">
          <mxGeometry x="80" y="40" width="120" height="40" as="geometry" />
        </mxCell>
        <mxCell id="LWds2frH-b3ze7NJfMs8-14" value="&lt;font style=&quot;font-size: 10px;&quot;&gt;/logout&lt;/font&gt;" style="shape=ext;margin=3;double=1;whiteSpace=wrap;html=1;align=center;" vertex="1" parent="LWds2frH-b3ze7NJfMs8-3">
          <mxGeometry x="680" y="40" width="120" height="40" as="geometry" />
        </mxCell>
        <mxCell id="LWds2frH-b3ze7NJfMs8-18" style="edgeStyle=orthogonalEdgeStyle;rounded=0;orthogonalLoop=1;jettySize=auto;html=1;entryX=0;entryY=0.5;entryDx=0;entryDy=0;" edge="1" parent="LWds2frH-b3ze7NJfMs8-3" source="LWds2frH-b3ze7NJfMs8-17" target="LWds2frH-b3ze7NJfMs8-4">
          <mxGeometry relative="1" as="geometry" />
        </mxCell>
        <mxCell id="LWds2frH-b3ze7NJfMs8-17" value="" style="ellipse;whiteSpace=wrap;html=1;aspect=fixed;" vertex="1" parent="LWds2frH-b3ze7NJfMs8-3">
          <mxGeometry x="20" y="45" width="30" height="30" as="geometry" />
        </mxCell>
        <mxCell id="LWds2frH-b3ze7NJfMs8-21" style="edgeStyle=orthogonalEdgeStyle;rounded=0;orthogonalLoop=1;jettySize=auto;html=1;entryX=0;entryY=0.25;entryDx=0;entryDy=0;exitX=1;exitY=0.25;exitDx=0;exitDy=0;" edge="1" parent="LWds2frH-b3ze7NJfMs8-3" source="LWds2frH-b3ze7NJfMs8-19" target="LWds2frH-b3ze7NJfMs8-20">
          <mxGeometry relative="1" as="geometry" />
        </mxCell>
        <mxCell id="LWds2frH-b3ze7NJfMs8-58" style="edgeStyle=orthogonalEdgeStyle;rounded=0;orthogonalLoop=1;jettySize=auto;html=1;exitX=0;exitY=0.75;exitDx=0;exitDy=0;entryX=1;entryY=0.75;entryDx=0;entryDy=0;" edge="1" parent="LWds2frH-b3ze7NJfMs8-3" source="LWds2frH-b3ze7NJfMs8-19" target="LWds2frH-b3ze7NJfMs8-30">
          <mxGeometry relative="1" as="geometry" />
        </mxCell>
        <mxCell id="LWds2frH-b3ze7NJfMs8-19" value="&lt;font style=&quot;font-size: 10px;&quot;&gt;/users&lt;/font&gt;" style="whiteSpace=wrap;html=1;align=center;" vertex="1" parent="LWds2frH-b3ze7NJfMs8-3">
          <mxGeometry x="280" y="120" width="120" height="40" as="geometry" />
        </mxCell>
        <mxCell id="LWds2frH-b3ze7NJfMs8-22" style="edgeStyle=orthogonalEdgeStyle;rounded=0;orthogonalLoop=1;jettySize=auto;html=1;entryX=1;entryY=0.75;entryDx=0;entryDy=0;exitX=0;exitY=0.75;exitDx=0;exitDy=0;" edge="1" parent="LWds2frH-b3ze7NJfMs8-3" source="LWds2frH-b3ze7NJfMs8-20" target="LWds2frH-b3ze7NJfMs8-19">
          <mxGeometry relative="1" as="geometry" />
        </mxCell>
        <mxCell id="LWds2frH-b3ze7NJfMs8-75" style="edgeStyle=orthogonalEdgeStyle;rounded=0;orthogonalLoop=1;jettySize=auto;html=1;entryX=0;entryY=0.5;entryDx=0;entryDy=0;" edge="1" parent="LWds2frH-b3ze7NJfMs8-3" source="LWds2frH-b3ze7NJfMs8-20" target="LWds2frH-b3ze7NJfMs8-66">
          <mxGeometry relative="1" as="geometry" />
        </mxCell>
        <mxCell id="LWds2frH-b3ze7NJfMs8-20" value="&lt;font style=&quot;font-size: 10px;&quot;&gt;/user/&amp;lt;id_:int&amp;gt;&lt;/font&gt;" style="whiteSpace=wrap;html=1;align=center;" vertex="1" parent="LWds2frH-b3ze7NJfMs8-3">
          <mxGeometry x="480" y="120" width="120" height="40" as="geometry" />
        </mxCell>
        <mxCell id="LWds2frH-b3ze7NJfMs8-27" style="edgeStyle=orthogonalEdgeStyle;rounded=0;orthogonalLoop=1;jettySize=auto;html=1;entryX=0;entryY=0.25;entryDx=0;entryDy=0;exitX=1;exitY=0.25;exitDx=0;exitDy=0;" edge="1" parent="LWds2frH-b3ze7NJfMs8-3" source="LWds2frH-b3ze7NJfMs8-24" target="LWds2frH-b3ze7NJfMs8-25">
          <mxGeometry relative="1" as="geometry" />
        </mxCell>
        <mxCell id="LWds2frH-b3ze7NJfMs8-59" style="edgeStyle=orthogonalEdgeStyle;rounded=0;orthogonalLoop=1;jettySize=auto;html=1;exitX=0;exitY=0.75;exitDx=0;exitDy=0;entryX=1;entryY=0.75;entryDx=0;entryDy=0;" edge="1" parent="LWds2frH-b3ze7NJfMs8-3" source="LWds2frH-b3ze7NJfMs8-24" target="LWds2frH-b3ze7NJfMs8-33">
          <mxGeometry relative="1" as="geometry" />
        </mxCell>
        <mxCell id="LWds2frH-b3ze7NJfMs8-24" value="&lt;font style=&quot;font-size: 10px;&quot;&gt;/adminUsers&lt;/font&gt;" style="whiteSpace=wrap;html=1;align=center;" vertex="1" parent="LWds2frH-b3ze7NJfMs8-3">
          <mxGeometry x="280" y="200" width="120" height="40" as="geometry" />
        </mxCell>
        <mxCell id="LWds2frH-b3ze7NJfMs8-28" style="edgeStyle=orthogonalEdgeStyle;rounded=0;orthogonalLoop=1;jettySize=auto;html=1;entryX=1;entryY=0.75;entryDx=0;entryDy=0;exitX=0;exitY=0.75;exitDx=0;exitDy=0;" edge="1" parent="LWds2frH-b3ze7NJfMs8-3" source="LWds2frH-b3ze7NJfMs8-25" target="LWds2frH-b3ze7NJfMs8-24">
          <mxGeometry relative="1" as="geometry" />
        </mxCell>
        <mxCell id="LWds2frH-b3ze7NJfMs8-74" style="edgeStyle=orthogonalEdgeStyle;rounded=0;orthogonalLoop=1;jettySize=auto;html=1;entryX=0;entryY=0.5;entryDx=0;entryDy=0;" edge="1" parent="LWds2frH-b3ze7NJfMs8-3" source="LWds2frH-b3ze7NJfMs8-25" target="LWds2frH-b3ze7NJfMs8-67">
          <mxGeometry relative="1" as="geometry" />
        </mxCell>
        <mxCell id="LWds2frH-b3ze7NJfMs8-25" value="&lt;font style=&quot;font-size: 10px;&quot;&gt;/adminUsers/&amp;lt;id_:int&amp;gt;&lt;/font&gt;" style="whiteSpace=wrap;html=1;align=center;" vertex="1" parent="LWds2frH-b3ze7NJfMs8-3">
          <mxGeometry x="480" y="200" width="120" height="40" as="geometry" />
        </mxCell>
        <mxCell id="LWds2frH-b3ze7NJfMs8-31" style="edgeStyle=orthogonalEdgeStyle;rounded=0;orthogonalLoop=1;jettySize=auto;html=1;entryX=0;entryY=0.5;entryDx=0;entryDy=0;" edge="1" parent="LWds2frH-b3ze7NJfMs8-3" source="LWds2frH-b3ze7NJfMs8-30" target="LWds2frH-b3ze7NJfMs8-19">
          <mxGeometry relative="1" as="geometry" />
        </mxCell>
        <mxCell id="LWds2frH-b3ze7NJfMs8-30" value="&lt;font style=&quot;font-size: 10px;&quot;&gt;/addUser&lt;/font&gt;" style="whiteSpace=wrap;html=1;align=center;" vertex="1" parent="LWds2frH-b3ze7NJfMs8-3">
          <mxGeometry x="80" y="120" width="120" height="40" as="geometry" />
        </mxCell>
        <mxCell id="LWds2frH-b3ze7NJfMs8-34" style="edgeStyle=orthogonalEdgeStyle;rounded=0;orthogonalLoop=1;jettySize=auto;html=1;entryX=0;entryY=0.25;entryDx=0;entryDy=0;exitX=1;exitY=0.25;exitDx=0;exitDy=0;" edge="1" parent="LWds2frH-b3ze7NJfMs8-3" source="LWds2frH-b3ze7NJfMs8-33" target="LWds2frH-b3ze7NJfMs8-24">
          <mxGeometry relative="1" as="geometry" />
        </mxCell>
        <mxCell id="LWds2frH-b3ze7NJfMs8-33" value="&lt;font style=&quot;font-size: 10px;&quot;&gt;/addAdmin&lt;/font&gt;" style="whiteSpace=wrap;html=1;align=center;" vertex="1" parent="LWds2frH-b3ze7NJfMs8-3">
          <mxGeometry x="80" y="200" width="120" height="40" as="geometry" />
        </mxCell>
        <mxCell id="LWds2frH-b3ze7NJfMs8-60" style="edgeStyle=orthogonalEdgeStyle;rounded=0;orthogonalLoop=1;jettySize=auto;html=1;exitX=0;exitY=0.75;exitDx=0;exitDy=0;entryX=1;entryY=0.75;entryDx=0;entryDy=0;" edge="1" parent="LWds2frH-b3ze7NJfMs8-3" source="LWds2frH-b3ze7NJfMs8-36" target="LWds2frH-b3ze7NJfMs8-40">
          <mxGeometry relative="1" as="geometry" />
        </mxCell>
        <mxCell id="LWds2frH-b3ze7NJfMs8-36" value="&lt;span style=&quot;font-size: 10px;&quot;&gt;/subjects&lt;/span&gt;" style="whiteSpace=wrap;html=1;align=center;" vertex="1" parent="LWds2frH-b3ze7NJfMs8-3">
          <mxGeometry x="280" y="280" width="120" height="40" as="geometry" />
        </mxCell>
        <mxCell id="LWds2frH-b3ze7NJfMs8-37" style="edgeStyle=orthogonalEdgeStyle;rounded=0;orthogonalLoop=1;jettySize=auto;html=1;entryX=1;entryY=0.75;entryDx=0;entryDy=0;exitX=0;exitY=0.75;exitDx=0;exitDy=0;" edge="1" parent="LWds2frH-b3ze7NJfMs8-3" source="LWds2frH-b3ze7NJfMs8-38" target="LWds2frH-b3ze7NJfMs8-36">
          <mxGeometry relative="1" as="geometry" />
        </mxCell>
        <mxCell id="LWds2frH-b3ze7NJfMs8-73" style="edgeStyle=orthogonalEdgeStyle;rounded=0;orthogonalLoop=1;jettySize=auto;html=1;entryX=0;entryY=0.5;entryDx=0;entryDy=0;" edge="1" parent="LWds2frH-b3ze7NJfMs8-3" source="LWds2frH-b3ze7NJfMs8-38" target="LWds2frH-b3ze7NJfMs8-68">
          <mxGeometry relative="1" as="geometry" />
        </mxCell>
        <mxCell id="LWds2frH-b3ze7NJfMs8-38" value="&lt;font style=&quot;font-size: 10px;&quot;&gt;/subject/&amp;lt;id_:int&amp;gt;&lt;/font&gt;" style="whiteSpace=wrap;html=1;align=center;" vertex="1" parent="LWds2frH-b3ze7NJfMs8-3">
          <mxGeometry x="480" y="280" width="120" height="40" as="geometry" />
        </mxCell>
        <mxCell id="LWds2frH-b3ze7NJfMs8-35" style="edgeStyle=orthogonalEdgeStyle;rounded=0;orthogonalLoop=1;jettySize=auto;html=1;entryX=0;entryY=0.25;entryDx=0;entryDy=0;exitX=1;exitY=0.25;exitDx=0;exitDy=0;" edge="1" parent="LWds2frH-b3ze7NJfMs8-3" source="LWds2frH-b3ze7NJfMs8-36" target="LWds2frH-b3ze7NJfMs8-38">
          <mxGeometry relative="1" as="geometry" />
        </mxCell>
        <mxCell id="LWds2frH-b3ze7NJfMs8-39" style="edgeStyle=orthogonalEdgeStyle;rounded=0;orthogonalLoop=1;jettySize=auto;html=1;entryX=0;entryY=0.25;entryDx=0;entryDy=0;exitX=1;exitY=0.25;exitDx=0;exitDy=0;" edge="1" parent="LWds2frH-b3ze7NJfMs8-3" source="LWds2frH-b3ze7NJfMs8-40" target="LWds2frH-b3ze7NJfMs8-36">
          <mxGeometry relative="1" as="geometry" />
        </mxCell>
        <mxCell id="LWds2frH-b3ze7NJfMs8-40" value="&lt;font style=&quot;font-size: 10px;&quot;&gt;/addSubject&lt;/font&gt;" style="whiteSpace=wrap;html=1;align=center;" vertex="1" parent="LWds2frH-b3ze7NJfMs8-3">
          <mxGeometry x="80" y="280" width="120" height="40" as="geometry" />
        </mxCell>
        <mxCell id="LWds2frH-b3ze7NJfMs8-61" style="edgeStyle=orthogonalEdgeStyle;rounded=0;orthogonalLoop=1;jettySize=auto;html=1;exitX=0;exitY=0.75;exitDx=0;exitDy=0;entryX=1;entryY=0.75;entryDx=0;entryDy=0;" edge="1" parent="LWds2frH-b3ze7NJfMs8-3" source="LWds2frH-b3ze7NJfMs8-42" target="LWds2frH-b3ze7NJfMs8-46">
          <mxGeometry relative="1" as="geometry" />
        </mxCell>
        <mxCell id="LWds2frH-b3ze7NJfMs8-42" value="&lt;font style=&quot;font-size: 10px;&quot;&gt;/exercises&lt;/font&gt;" style="whiteSpace=wrap;html=1;align=center;" vertex="1" parent="LWds2frH-b3ze7NJfMs8-3">
          <mxGeometry x="280" y="360" width="120" height="40" as="geometry" />
        </mxCell>
        <mxCell id="LWds2frH-b3ze7NJfMs8-43" style="edgeStyle=orthogonalEdgeStyle;rounded=0;orthogonalLoop=1;jettySize=auto;html=1;entryX=1;entryY=0.75;entryDx=0;entryDy=0;exitX=0;exitY=0.75;exitDx=0;exitDy=0;" edge="1" parent="LWds2frH-b3ze7NJfMs8-3" source="LWds2frH-b3ze7NJfMs8-44" target="LWds2frH-b3ze7NJfMs8-42">
          <mxGeometry relative="1" as="geometry" />
        </mxCell>
        <mxCell id="LWds2frH-b3ze7NJfMs8-72" style="edgeStyle=orthogonalEdgeStyle;rounded=0;orthogonalLoop=1;jettySize=auto;html=1;entryX=0;entryY=0.5;entryDx=0;entryDy=0;" edge="1" parent="LWds2frH-b3ze7NJfMs8-3" source="LWds2frH-b3ze7NJfMs8-44" target="LWds2frH-b3ze7NJfMs8-69">
          <mxGeometry relative="1" as="geometry" />
        </mxCell>
        <mxCell id="LWds2frH-b3ze7NJfMs8-44" value="&lt;font style=&quot;font-size: 10px;&quot;&gt;/exercise/&amp;lt;id_:int&amp;gt;&lt;/font&gt;" style="whiteSpace=wrap;html=1;align=center;" vertex="1" parent="LWds2frH-b3ze7NJfMs8-3">
          <mxGeometry x="480" y="360" width="120" height="40" as="geometry" />
        </mxCell>
        <mxCell id="LWds2frH-b3ze7NJfMs8-41" style="edgeStyle=orthogonalEdgeStyle;rounded=0;orthogonalLoop=1;jettySize=auto;html=1;entryX=0;entryY=0.25;entryDx=0;entryDy=0;exitX=1;exitY=0.25;exitDx=0;exitDy=0;" edge="1" parent="LWds2frH-b3ze7NJfMs8-3" source="LWds2frH-b3ze7NJfMs8-42" target="LWds2frH-b3ze7NJfMs8-44">
          <mxGeometry relative="1" as="geometry" />
        </mxCell>
        <mxCell id="LWds2frH-b3ze7NJfMs8-45" style="edgeStyle=orthogonalEdgeStyle;rounded=0;orthogonalLoop=1;jettySize=auto;html=1;entryX=0;entryY=0.25;entryDx=0;entryDy=0;exitX=1;exitY=0.25;exitDx=0;exitDy=0;" edge="1" parent="LWds2frH-b3ze7NJfMs8-3" source="LWds2frH-b3ze7NJfMs8-46" target="LWds2frH-b3ze7NJfMs8-42">
          <mxGeometry relative="1" as="geometry" />
        </mxCell>
        <mxCell id="LWds2frH-b3ze7NJfMs8-46" value="&lt;font style=&quot;font-size: 10px;&quot;&gt;/addExercise&lt;/font&gt;" style="whiteSpace=wrap;html=1;align=center;" vertex="1" parent="LWds2frH-b3ze7NJfMs8-3">
          <mxGeometry x="80" y="360" width="120" height="40" as="geometry" />
        </mxCell>
        <mxCell id="LWds2frH-b3ze7NJfMs8-62" style="edgeStyle=orthogonalEdgeStyle;rounded=0;orthogonalLoop=1;jettySize=auto;html=1;exitX=0;exitY=0.75;exitDx=0;exitDy=0;entryX=1;entryY=0.75;entryDx=0;entryDy=0;" edge="1" parent="LWds2frH-b3ze7NJfMs8-3" source="LWds2frH-b3ze7NJfMs8-47" target="LWds2frH-b3ze7NJfMs8-52">
          <mxGeometry relative="1" as="geometry" />
        </mxCell>
        <mxCell id="LWds2frH-b3ze7NJfMs8-47" value="&lt;font style=&quot;font-size: 10px;&quot;&gt;/tasks&lt;/font&gt;" style="whiteSpace=wrap;html=1;align=center;" vertex="1" parent="LWds2frH-b3ze7NJfMs8-3">
          <mxGeometry x="280" y="440" width="120" height="40" as="geometry" />
        </mxCell>
        <mxCell id="LWds2frH-b3ze7NJfMs8-48" style="edgeStyle=orthogonalEdgeStyle;rounded=0;orthogonalLoop=1;jettySize=auto;html=1;entryX=1;entryY=0.75;entryDx=0;entryDy=0;exitX=0;exitY=0.75;exitDx=0;exitDy=0;" edge="1" parent="LWds2frH-b3ze7NJfMs8-3" source="LWds2frH-b3ze7NJfMs8-49" target="LWds2frH-b3ze7NJfMs8-47">
          <mxGeometry relative="1" as="geometry" />
        </mxCell>
        <mxCell id="LWds2frH-b3ze7NJfMs8-53" style="edgeStyle=orthogonalEdgeStyle;rounded=0;orthogonalLoop=1;jettySize=auto;html=1;entryX=0.75;entryY=1;entryDx=0;entryDy=0;exitX=0.75;exitY=0;exitDx=0;exitDy=0;" edge="1" parent="LWds2frH-b3ze7NJfMs8-3" source="LWds2frH-b3ze7NJfMs8-49" target="LWds2frH-b3ze7NJfMs8-44">
          <mxGeometry relative="1" as="geometry" />
        </mxCell>
        <mxCell id="LWds2frH-b3ze7NJfMs8-71" style="edgeStyle=orthogonalEdgeStyle;rounded=0;orthogonalLoop=1;jettySize=auto;html=1;entryX=0;entryY=0.5;entryDx=0;entryDy=0;" edge="1" parent="LWds2frH-b3ze7NJfMs8-3" source="LWds2frH-b3ze7NJfMs8-49" target="LWds2frH-b3ze7NJfMs8-70">
          <mxGeometry relative="1" as="geometry" />
        </mxCell>
        <mxCell id="LWds2frH-b3ze7NJfMs8-49" value="&lt;font style=&quot;font-size: 10px;&quot;&gt;/task/&amp;lt;id_:int&amp;gt;&lt;/font&gt;" style="whiteSpace=wrap;html=1;align=center;" vertex="1" parent="LWds2frH-b3ze7NJfMs8-3">
          <mxGeometry x="480" y="440" width="120" height="40" as="geometry" />
        </mxCell>
        <mxCell id="LWds2frH-b3ze7NJfMs8-50" style="edgeStyle=orthogonalEdgeStyle;rounded=0;orthogonalLoop=1;jettySize=auto;html=1;entryX=0;entryY=0.25;entryDx=0;entryDy=0;exitX=1;exitY=0.25;exitDx=0;exitDy=0;" edge="1" parent="LWds2frH-b3ze7NJfMs8-3" source="LWds2frH-b3ze7NJfMs8-47" target="LWds2frH-b3ze7NJfMs8-49">
          <mxGeometry relative="1" as="geometry" />
        </mxCell>
        <mxCell id="LWds2frH-b3ze7NJfMs8-51" style="edgeStyle=orthogonalEdgeStyle;rounded=0;orthogonalLoop=1;jettySize=auto;html=1;entryX=0;entryY=0.25;entryDx=0;entryDy=0;exitX=1;exitY=0.25;exitDx=0;exitDy=0;" edge="1" parent="LWds2frH-b3ze7NJfMs8-3" source="LWds2frH-b3ze7NJfMs8-52" target="LWds2frH-b3ze7NJfMs8-47">
          <mxGeometry relative="1" as="geometry" />
        </mxCell>
        <mxCell id="LWds2frH-b3ze7NJfMs8-52" value="&lt;font style=&quot;font-size: 10px;&quot;&gt;/addTask&lt;/font&gt;" style="whiteSpace=wrap;html=1;align=center;" vertex="1" parent="LWds2frH-b3ze7NJfMs8-3">
          <mxGeometry x="80" y="440" width="120" height="40" as="geometry" />
        </mxCell>
        <mxCell id="LWds2frH-b3ze7NJfMs8-54" style="edgeStyle=orthogonalEdgeStyle;rounded=0;orthogonalLoop=1;jettySize=auto;html=1;entryX=0.25;entryY=0;entryDx=0;entryDy=0;exitX=0.25;exitY=1;exitDx=0;exitDy=0;" edge="1" parent="LWds2frH-b3ze7NJfMs8-3" source="LWds2frH-b3ze7NJfMs8-44" target="LWds2frH-b3ze7NJfMs8-49">
          <mxGeometry relative="1" as="geometry" />
        </mxCell>
        <mxCell id="LWds2frH-b3ze7NJfMs8-55" style="edgeStyle=orthogonalEdgeStyle;rounded=0;orthogonalLoop=1;jettySize=auto;html=1;entryX=0.75;entryY=1;entryDx=0;entryDy=0;exitX=0.75;exitY=0;exitDx=0;exitDy=0;" edge="1" parent="LWds2frH-b3ze7NJfMs8-3" source="LWds2frH-b3ze7NJfMs8-44" target="LWds2frH-b3ze7NJfMs8-38">
          <mxGeometry relative="1" as="geometry">
            <mxPoint x="580" y="450" as="sourcePoint" />
            <mxPoint x="580" y="410" as="targetPoint" />
          </mxGeometry>
        </mxCell>
        <mxCell id="LWds2frH-b3ze7NJfMs8-57" style="edgeStyle=orthogonalEdgeStyle;rounded=0;orthogonalLoop=1;jettySize=auto;html=1;entryX=0.25;entryY=1;entryDx=0;entryDy=0;exitX=0.25;exitY=0;exitDx=0;exitDy=0;" edge="1" parent="LWds2frH-b3ze7NJfMs8-3" source="LWds2frH-b3ze7NJfMs8-44" target="LWds2frH-b3ze7NJfMs8-38">
          <mxGeometry relative="1" as="geometry">
            <mxPoint x="520" y="410" as="sourcePoint" />
            <mxPoint x="520" y="450" as="targetPoint" />
            <Array as="points" />
          </mxGeometry>
        </mxCell>
        <mxCell id="LWds2frH-b3ze7NJfMs8-63" value="Routes used in the base template will not be listed here" style="text;html=1;align=center;verticalAlign=middle;resizable=0;points=[];autosize=1;strokeColor=none;fillColor=none;" vertex="1" parent="LWds2frH-b3ze7NJfMs8-3">
          <mxGeometry x="680" y="650" width="320" height="30" as="geometry" />
        </mxCell>
        <mxCell id="LWds2frH-b3ze7NJfMs8-76" style="edgeStyle=orthogonalEdgeStyle;rounded=0;orthogonalLoop=1;jettySize=auto;html=1;entryX=0.5;entryY=0;entryDx=0;entryDy=0;exitX=0.5;exitY=0;exitDx=0;exitDy=0;" edge="1" parent="LWds2frH-b3ze7NJfMs8-3" source="LWds2frH-b3ze7NJfMs8-66" target="LWds2frH-b3ze7NJfMs8-19">
          <mxGeometry relative="1" as="geometry" />
        </mxCell>
        <mxCell id="LWds2frH-b3ze7NJfMs8-66" value="&lt;font style=&quot;font-size: 10px;&quot;&gt;/deleteUser/&amp;lt;id_:int&amp;gt;&lt;/font&gt;" style="shape=ext;margin=3;double=1;whiteSpace=wrap;html=1;align=center;" vertex="1" parent="LWds2frH-b3ze7NJfMs8-3">
          <mxGeometry x="680" y="120" width="120" height="40" as="geometry" />
        </mxCell>
        <mxCell id="LWds2frH-b3ze7NJfMs8-77" style="edgeStyle=orthogonalEdgeStyle;rounded=0;orthogonalLoop=1;jettySize=auto;html=1;entryX=0.5;entryY=0;entryDx=0;entryDy=0;exitX=0.5;exitY=0;exitDx=0;exitDy=0;" edge="1" parent="LWds2frH-b3ze7NJfMs8-3" source="LWds2frH-b3ze7NJfMs8-67" target="LWds2frH-b3ze7NJfMs8-24">
          <mxGeometry relative="1" as="geometry" />
        </mxCell>
        <mxCell id="LWds2frH-b3ze7NJfMs8-67" value="&lt;font style=&quot;font-size: 10px;&quot;&gt;/deleteAdmin/&amp;lt;id_:int&amp;gt;&lt;/font&gt;" style="shape=ext;margin=3;double=1;whiteSpace=wrap;html=1;align=center;" vertex="1" parent="LWds2frH-b3ze7NJfMs8-3">
          <mxGeometry x="680" y="200" width="120" height="40" as="geometry" />
        </mxCell>
        <mxCell id="LWds2frH-b3ze7NJfMs8-78" style="edgeStyle=orthogonalEdgeStyle;rounded=0;orthogonalLoop=1;jettySize=auto;html=1;entryX=0.5;entryY=0;entryDx=0;entryDy=0;exitX=0.5;exitY=0;exitDx=0;exitDy=0;" edge="1" parent="LWds2frH-b3ze7NJfMs8-3" source="LWds2frH-b3ze7NJfMs8-68" target="LWds2frH-b3ze7NJfMs8-36">
          <mxGeometry relative="1" as="geometry" />
        </mxCell>
        <mxCell id="LWds2frH-b3ze7NJfMs8-68" value="&lt;font style=&quot;font-size: 10px;&quot;&gt;/deleteSubject/&amp;lt;id_:int&amp;gt;&lt;/font&gt;" style="shape=ext;margin=3;double=1;whiteSpace=wrap;html=1;align=center;" vertex="1" parent="LWds2frH-b3ze7NJfMs8-3">
          <mxGeometry x="680" y="280" width="120" height="40" as="geometry" />
        </mxCell>
        <mxCell id="LWds2frH-b3ze7NJfMs8-79" style="edgeStyle=orthogonalEdgeStyle;rounded=0;orthogonalLoop=1;jettySize=auto;html=1;entryX=0.5;entryY=0;entryDx=0;entryDy=0;exitX=0.5;exitY=0;exitDx=0;exitDy=0;" edge="1" parent="LWds2frH-b3ze7NJfMs8-3" source="LWds2frH-b3ze7NJfMs8-69" target="LWds2frH-b3ze7NJfMs8-42">
          <mxGeometry relative="1" as="geometry" />
        </mxCell>
        <mxCell id="LWds2frH-b3ze7NJfMs8-69" value="&lt;font style=&quot;font-size: 10px;&quot;&gt;/deleteExercise/&amp;lt;id_:int&amp;gt;&lt;/font&gt;" style="shape=ext;margin=3;double=1;whiteSpace=wrap;html=1;align=center;" vertex="1" parent="LWds2frH-b3ze7NJfMs8-3">
          <mxGeometry x="680" y="360" width="120" height="40" as="geometry" />
        </mxCell>
        <mxCell id="LWds2frH-b3ze7NJfMs8-80" style="edgeStyle=orthogonalEdgeStyle;rounded=0;orthogonalLoop=1;jettySize=auto;html=1;entryX=0.5;entryY=0;entryDx=0;entryDy=0;exitX=0.5;exitY=0;exitDx=0;exitDy=0;" edge="1" parent="LWds2frH-b3ze7NJfMs8-3" source="LWds2frH-b3ze7NJfMs8-70" target="LWds2frH-b3ze7NJfMs8-47">
          <mxGeometry relative="1" as="geometry" />
        </mxCell>
        <mxCell id="LWds2frH-b3ze7NJfMs8-70" value="&lt;font style=&quot;font-size: 10px;&quot;&gt;/deleteTask/&amp;lt;id_:int&amp;gt;&lt;/font&gt;" style="shape=ext;margin=3;double=1;whiteSpace=wrap;html=1;align=center;" vertex="1" parent="LWds2frH-b3ze7NJfMs8-3">
          <mxGeometry x="680" y="440" width="120" height="40" as="geometry" />
        </mxCell>
        <mxCell id="LWds2frH-b3ze7NJfMs8-5" value="&lt;font style=&quot;font-size: 10px;&quot;&gt;/login&lt;/font&gt;" style="rounded=0;whiteSpace=wrap;html=1;" vertex="1" parent="1">
          <mxGeometry x="600" y="80" width="120" height="40" as="geometry" />
        </mxCell>
        <mxCell id="LWds2frH-b3ze7NJfMs8-10" value="&lt;font style=&quot;font-size: 10px;&quot;&gt;no Rendered site&lt;/font&gt;" style="shape=ext;margin=3;double=1;whiteSpace=wrap;html=1;align=center;" vertex="1" parent="1">
          <mxGeometry y="440" width="120" height="40" as="geometry" />
        </mxCell>
        <mxCell id="LWds2frH-b3ze7NJfMs8-11" value="&lt;font style=&quot;font-size: 10px;&quot;&gt;Rendered site&lt;/font&gt;" style="whiteSpace=wrap;html=1;align=center;" vertex="1" parent="1">
          <mxGeometry y="520" width="120" height="40" as="geometry" />
        </mxCell>
        <mxCell id="LWds2frH-b3ze7NJfMs8-15" style="edgeStyle=orthogonalEdgeStyle;rounded=0;orthogonalLoop=1;jettySize=auto;html=1;entryX=0.75;entryY=1;entryDx=0;entryDy=0;exitX=0.5;exitY=0;exitDx=0;exitDy=0;" edge="1" parent="1" source="LWds2frH-b3ze7NJfMs8-14" target="LWds2frH-b3ze7NJfMs8-5">
          <mxGeometry relative="1" as="geometry">
            <Array as="points">
              <mxPoint x="860" y="200" />
              <mxPoint x="588" y="200" />
            </Array>
          </mxGeometry>
        </mxCell>
        <mxCell id="LWds2frH-b3ze7NJfMs8-16" value="manual logout" style="edgeLabel;html=1;align=center;verticalAlign=middle;resizable=0;points=[];" vertex="1" connectable="0" parent="LWds2frH-b3ze7NJfMs8-15">
          <mxGeometry x="-0.6916" relative="1" as="geometry">
            <mxPoint y="-41" as="offset" />
          </mxGeometry>
        </mxCell>
      </root>
    </mxGraphModel>
  </diagram>
</mxfile>
